# 3ds Max Wavefront OBJ Exporter v0.97b - (c)2007 guruware
# 创建的文件:04.10.2014 19:21:50

mtllib background.mtl

#
# object Rectangle01
#

v  -678.0060 -1200.0000 1.1688
v  671.9940 -1200.0000 1.1688
v  671.9940 1200.0000 1.1692
v  -678.0060 1200.0000 1.1692
# 4 vertices

vn 0.0000 -0.0000 1.0000
# 1 vertex normals

vt 0.0000 0.0000 0.5000
vt 1.0000 0.0000 0.5000
vt 1.0000 1.0000 0.5000
vt 0.0000 1.0000 0.5000
# 4 texture coords

g Rectangle01
usemtl 01___Default
s 1
f 1/1/1 2/2/1 3/3/1 
f 4/4/1 1/1/1 3/3/1 
# 2 faces

