# 3ds Max Wavefront OBJ Exporter v0.97b - (c)2007 guruware
# 创建的文件:17.11.2014 15:37:29

mtllib enemyPlane2.mtl

#
# object enemy07
#

v  5.4515 11.6634 -12.0166
v  5.4515 11.6634 -2.0833
v  11.5044 18.6006 -4.2857
v  5.4515 -38.5946 -3.8660
v  19.0829 -32.7272 -3.8660
v  5.4515 -17.8413 7.0869
v  5.4515 -23.7870 -7.4903
v  27.4995 9.7041 -18.4210
v  5.4515 -4.5830 -12.8214
v  26.5650 22.0672 -17.5411
v  28.3090 25.5137 -13.6002
v  28.1427 8.5446 -14.9383
v  13.8517 -5.3078 -8.2226
v  13.7556 23.6341 3.4827
v  10.1602 22.6318 5.6595
v  9.4003 -4.5830 -0.3713
v  16.6927 22.6399 10.0227
v  14.4094 25.4247 6.0942
v  15.1892 -4.9448 4.3840
v  26.6924 -12.1179 -3.8660
v  21.9670 59.7990 -5.8654
v  24.7979 -23.2933 -3.8660
v  44.5573 23.1691 -23.1280
v  51.6650 34.4141 -27.0430
v  30.7629 10.8634 -16.4219
v  44.6713 23.1705 -23.0287
v  29.0210 -7.8331 -18.4802
v  52.5139 16.9897 -27.5382
v  12.5335 30.4583 9.2290
v  12.7585 32.8364 5.2016
v  -0.6014 18.6006 -4.2857
v  -8.1799 -32.7272 -3.8660
v  -16.5964 9.7041 -18.4210
v  -15.6619 22.0672 -17.5411
v  -17.4060 25.5137 -13.6002
v  -17.2396 8.5446 -14.9383
v  -2.9488 -5.3078 -8.2226
v  -2.8526 23.6341 3.4827
v  0.7427 22.6318 5.6595
v  1.5026 -4.5830 -0.3713
v  -5.7897 22.6399 10.0227
v  -3.5066 25.4247 6.0942
v  -4.2861 -4.9448 4.3840
v  -15.7896 -12.1179 -3.8660
v  -11.0640 59.7990 -5.8654
v  -13.8948 -23.2933 -3.8660
v  -33.6543 23.1691 -23.1280
v  -40.7620 34.4141 -27.0430
v  -33.7684 23.1705 -23.0287
v  -19.8600 10.8634 -16.4219
v  -18.1179 -7.8331 -18.4802
v  -41.6108 16.9897 -27.5382
v  -1.6305 30.4583 9.2290
v  -1.8557 32.8364 5.2016
# 54 vertices

vn -0.7535 0.0000 0.6574
vn 0.1970 -0.8671 -0.4576
vn 0.1018 0.9663 -0.2365
vn -0.2747 0.9603 0.0476
vn -0.4858 0.3416 0.8045
vn -0.5324 0.4114 0.7398
vn 0.5062 -0.8593 -0.0727
vn 0.4962 -0.8632 -0.0934
vn 0.5604 0.3529 -0.7492
vn 0.2928 0.6459 -0.7050
vn -0.7687 0.1757 0.6150
vn -0.5232 0.5741 0.6299
vn -0.7645 -0.6336 -0.1191
vn 0.7837 -0.4807 -0.3934
vn 0.8997 0.4018 0.1708
vn 0.4838 -0.8551 -0.1861
vn 0.6069 -0.7924 0.0619
vn 0.4504 0.8603 -0.2388
vn 0.1804 0.9762 -0.1207
vn 0.8705 -0.4919 0.0175
vn 0.6280 -0.7431 0.2310
vn -0.9877 -0.1013 0.1194
vn -0.7896 -0.0662 0.6101
vn 0.3609 -0.9066 -0.2186
vn 0.3187 0.9478 -0.0054
vn -0.2988 0.9533 0.0453
vn -0.2848 0.9468 -0.1496
vn -0.5234 0.4178 0.7426
vn 0.4882 -0.8685 -0.0855
vn 0.4992 -0.8665 -0.0011
vn 0.5069 0.3784 -0.7745
vn 0.4357 0.4896 -0.7553
vn 0.5386 -0.8395 -0.0715
vn -0.9844 -0.1532 -0.0859
vn 0.5095 0.8592 0.0471
vn 0.5800 -0.8021 -0.1423
vn -0.4840 0.8751 0.0013
vn 0.4982 -0.8670 -0.0004
vn -0.3802 -0.4480 -0.8092
vn 0.5419 -0.8354 -0.0919
vn 0.2968 0.9536 -0.0503
vn -0.2128 0.8630 0.4582
vn -0.5354 0.8388 0.0987
vn -0.1558 -0.9842 0.0838
vn 0.9244 0.3442 0.1644
vn -0.6412 -0.7528 -0.1489
vn 0.9193 0.3637 0.1502
vn 0.9353 0.3270 0.1354
vn 0.1943 0.9739 -0.1177
vn -0.5082 -0.8411 -0.1850
vn 0.7535 0.0000 0.6574
vn -0.1970 -0.8671 -0.4576
vn -0.1018 0.9663 -0.2365
vn 0.2747 0.9603 0.0476
vn 0.5324 0.4114 0.7398
vn 0.4858 0.3416 0.8045
vn -0.4962 -0.8632 -0.0934
vn -0.5062 -0.8593 -0.0727
vn -0.2928 0.6459 -0.7050
vn -0.5604 0.3529 -0.7492
vn 0.5232 0.5741 0.6299
vn 0.7687 0.1757 0.6150
vn 0.7645 -0.6336 -0.1191
vn -0.7837 -0.4807 -0.3934
vn -0.8997 0.4018 0.1708
vn -0.4838 -0.8551 -0.1861
vn -0.6069 -0.7924 0.0619
vn -0.4504 0.8603 -0.2388
vn -0.1804 0.9762 -0.1207
vn -0.8705 -0.4919 0.0175
vn -0.6280 -0.7431 0.2310
vn 0.9877 -0.1013 0.1194
vn 0.7896 -0.0662 0.6101
vn -0.3609 -0.9066 -0.2186
vn -0.3187 0.9478 -0.0054
vn 0.2848 0.9468 -0.1496
vn 0.2988 0.9533 0.0453
vn 0.5234 0.4178 0.7426
vn -0.4992 -0.8665 -0.0011
vn -0.4882 -0.8685 -0.0855
vn -0.4357 0.4896 -0.7553
vn -0.5069 0.3784 -0.7745
vn -0.5386 -0.8395 -0.0715
vn 0.9844 -0.1532 -0.0859
vn -0.5095 0.8592 0.0471
vn -0.5800 -0.8021 -0.1423
vn 0.4840 0.8751 0.0013
vn -0.4982 -0.8670 -0.0004
vn 0.3802 -0.4480 -0.8092
vn -0.5419 -0.8354 -0.0919
vn -0.2968 0.9536 -0.0503
vn 0.2128 0.8630 0.4582
vn 0.5354 0.8388 0.0987
vn 0.1558 -0.9842 0.0838
vn -0.9244 0.3442 0.1644
vn 0.6412 -0.7528 -0.1489
vn -0.9193 0.3637 0.1502
vn -0.9353 0.3270 0.1354
vn -0.1943 0.9739 -0.1177
vn 0.5082 -0.8411 -0.1850
vn -0.8743 0.1923 0.4456
vn 0.8743 0.1923 0.4456
# 102 vertex normals

vt 0.8008 0.3738 0.0000
vt 0.8186 0.3825 0.0000
vt 0.8177 0.3754 0.0000
vt 0.9966 0.6617 0.0000
vt 0.9214 0.6367 0.0000
vt 0.9967 0.5437 0.0000
vt 0.9643 0.4238 0.0000
vt 0.9409 0.4486 0.0000
vt 0.9645 0.4540 0.0000
vt 0.7835 0.4267 0.0000
vt 0.7552 0.3734 0.0000
vt 0.7981 0.3734 0.0000
vt 0.8159 0.4282 0.0000
vt 0.8178 0.3754 0.0000
vt 0.8262 0.4287 0.0000
vt 0.7777 0.5145 0.0000
vt 0.6726 0.4770 0.0000
vt 0.6735 0.6226 0.0000
vt 0.8230 0.6561 0.0000
vt 0.7947 0.5078 0.0000
vt 0.8571 0.6549 0.0000
vt 0.6732 0.5108 0.0000
vt 0.6892 0.6115 0.0000
vt 0.7270 0.6245 0.0000
vt 0.6970 0.5118 0.0000
vt 0.7898 0.6448 0.0000
vt 0.8222 0.6485 0.0000
vt 0.7378 0.3613 0.0000
vt 0.7543 0.3703 0.0000
vt 0.8144 0.4279 0.0000
vt 0.8105 0.4766 0.0000
vt 0.9379 0.4775 0.0000
vt 0.8677 0.5288 0.0000
vt 0.8288 0.3379 0.0000
vt 0.9494 0.3853 0.0000
vt 0.9402 0.4020 0.0000
vt 0.9497 0.4653 0.0000
vt 0.9728 0.4665 0.0000
vt 0.9908 0.3780 0.0000
vt 0.8823 0.3655 0.0000
vt 0.9442 0.3916 0.0000
vt 0.8860 0.5880 0.0000
vt 0.9090 0.4217 0.0000
vt 0.8103 0.4770 0.0000
vt 0.8331 0.4809 0.0000
vt 0.7698 0.4896 0.0000
vt 0.7364 0.3623 0.0000
vt 0.6725 0.3372 0.0000
vt 0.7876 0.4910 0.0000
vt 0.7395 0.3622 0.0000
vt 0.7909 0.4994 0.0000
vt 0.8259 0.4961 0.0000
vt 0.7899 0.4819 0.0000
vt 0.7821 0.3525 0.0000
vt 0.9241 0.4366 0.0000
vt 0.6728 0.4181 0.0000
vt 0.6732 0.4875 0.0000
vt 0.6972 0.5106 0.0000
vt 0.8128 0.4159 0.0000
vt 0.8266 0.4290 0.0000
vt 0.7994 0.3725 0.0000
vt 0.7911 0.4992 0.0000
vt 0.8186 0.4532 0.0000
# 63 texture coords

g enemy07
usemtl _enemy2default
s 1
f 1/1/1 2/2/1 3/3/1 
f 4/4/2 5/5/2 6/6/2 
f 7/7/3 5/8/3 4/9/3 
f 8/10/4 9/11/4 1/12/4 
f 1/12/4 10/13/4 8/10/4 
f 10/13/5 1/12/5 3/14/5 
f 3/14/6 11/15/6 10/13/6 
f 12/16/7 11/17/7 3/18/7 
f 3/18/8 13/19/8 12/16/8 
f 8/20/9 12/16/9 13/19/9 
f 13/19/10 9/21/10 8/20/10 
f 14/22/11 3/23/11 2/24/11 
f 2/24/12 15/25/12 14/22/12 
f 2/24/13 16/26/13 15/25/13 
f 16/26/14 13/27/14 17/28/14 
f 13/29/15 18/30/15 17/31/15 
f 5/5/16 19/32/16 6/6/16 
f 20/33/17 21/34/17 19/32/17 
f 7/7/18 9/35/18 13/36/18 
f 7/7/19 13/36/19 5/8/19 
f 13/37/20 16/38/20 6/6/20 
f 2/39/21 6/6/21 16/38/21 
f 21/40/22 13/36/22 19/41/22 
f 13/37/23 6/6/23 19/32/23 
f 5/5/24 22/42/24 19/32/24 
f 13/36/25 21/40/25 20/43/25 
f 23/44/26 8/10/26 10/13/26 
f 10/13/27 24/45/27 23/44/27 
f 11/15/28 24/45/28 10/13/28 
f 11/17/29 25/46/29 26/47/29 
f 26/47/30 24/48/30 11/17/30 
f 25/46/31 8/49/31 23/50/31 
f 23/50/32 26/47/32 25/46/32 
f 12/16/33 25/46/33 11/17/33 
f 12/16/34 8/51/34 27/52/34 
f 8/51/35 25/46/35 27/52/35 
f 25/46/36 12/16/36 27/52/36 
f 24/45/37 28/53/37 23/44/37 
f 26/47/38 28/54/38 24/48/38 
f 23/50/39 28/54/39 26/47/39 
f 22/42/40 20/33/40 19/32/40 
f 13/36/41 20/43/41 22/55/41 
f 15/25/42 29/56/42 18/57/42 
f 14/22/43 15/25/43 30/58/43 
f 15/25/44 18/57/44 30/58/44 
f 18/30/45 14/59/45 30/60/45 
f 16/26/46 29/56/46 15/25/46 
f 13/29/47 3/61/47 14/59/47 
f 13/29/48 14/59/48 18/30/48 
f 13/36/49 22/55/49 5/8/49 
f 16/26/50 17/28/50 29/56/50 
f 1/1/51 31/14/51 2/2/51 
f 4/4/52 6/6/52 32/5/52 
f 7/7/53 4/9/53 32/8/53 
f 33/10/54 34/13/54 1/12/54 
f 1/12/54 9/11/54 33/10/54 
f 34/13/55 35/15/55 31/14/55 
f 31/14/56 1/12/56 34/13/56 
f 36/16/57 37/19/57 31/18/57 
f 31/18/58 35/17/58 36/16/58 
f 33/62/59 9/21/59 37/19/59 
f 37/19/60 36/16/60 33/62/60 
f 38/22/61 39/25/61 2/24/61 
f 2/24/62 31/23/62 38/22/62 
f 2/24/63 39/25/63 40/26/63 
f 40/26/64 41/28/64 37/27/64 
f 37/29/65 41/31/65 42/30/65 
f 32/5/66 6/6/66 43/32/66 
f 44/33/67 43/32/67 45/34/67 
f 7/7/68 37/36/68 9/35/68 
f 7/7/69 32/8/69 37/36/69 
f 37/37/70 6/6/70 40/38/70 
f 2/39/71 40/38/71 6/6/71 
f 45/40/72 43/41/72 37/36/72 
f 37/37/73 43/32/73 6/6/73 
f 32/5/74 43/32/74 46/42/74 
f 37/36/75 44/43/75 45/40/75 
f 47/44/76 48/45/76 34/13/76 
f 34/13/77 33/10/77 47/44/77 
f 35/15/78 34/13/78 48/45/78 
f 35/17/79 48/48/79 49/47/79 
f 49/47/80 50/46/80 35/17/80 
f 50/46/81 49/47/81 47/50/81 
f 47/50/82 33/62/82 50/46/82 
f 36/16/83 35/17/83 50/46/83 
f 36/16/84 51/52/84 33/62/84 
f 33/62/85 51/52/85 50/46/85 
f 50/46/86 51/52/86 36/16/86 
f 48/45/87 47/44/87 52/53/87 
f 49/47/88 48/48/88 52/54/88 
f 47/50/89 49/47/89 52/54/89 
f 46/42/90 43/32/90 44/33/90 
f 37/36/91 46/55/91 44/43/91 
f 39/25/92 42/57/92 53/56/92 
f 38/22/93 54/58/93 39/25/93 
f 39/25/94 54/58/94 42/57/94 
f 42/30/95 54/60/95 38/59/95 
f 40/26/96 39/25/96 53/56/96 
f 37/29/97 38/59/97 31/61/97 
f 37/29/98 42/30/98 38/59/98 
f 37/36/99 32/8/99 46/55/99 
f 40/26/100 53/56/100 41/28/100 
f 41/31/101 53/63/101 42/30/101 
f 18/30/102 29/63/102 17/31/102 
# 104 faces

