# 3ds Max Wavefront OBJ Exporter v0.97b - (c)2007 guruware
# 创建的文件:23.11.2014 09:30:04

#
# object Box01
#

v  -4.0000 -2.0000 20.0000
v  -4.0000 -2.0000 -20.0000
v  4.0000 -2.0000 -20.0000
v  4.0000 -2.0000 20.0000
v  -4.0000 2.0000 20.0000
v  4.0000 2.0000 20.0000
v  4.0000 2.0000 -20.0000
v  -4.0000 2.0000 -20.0000
v  20.0000 -2.0000 4.0000
v  -20.0000 -2.0000 4.0000
v  -20.0000 -2.0000 -4.0000
v  20.0000 -2.0000 -4.0000
v  20.0000 2.0000 4.0000
v  20.0000 2.0000 -4.0000
v  -20.0000 2.0000 -4.0000
v  -20.0000 2.0000 4.0000
# 16 vertices

vn 0.0000 -1.0000 -0.0000
vn 0.0000 1.0000 -0.0000
vn 0.0000 0.0000 1.0000
vn 1.0000 0.0000 -0.0000
vn 0.0000 0.0000 -1.0000
vn -1.0000 0.0000 -0.0000
# 6 vertex normals

vt 1.0000 0.0000 0.0000
vt 1.0000 1.0000 0.0000
vt 0.0000 1.0000 0.0000
vt 0.0000 0.0000 0.0000
# 4 texture coords

g Box01
f 1/1/1 2/2/1 3/3/1 
f 3/3/1 4/4/1 1/1/1 
f 5/4/2 6/1/2 7/2/2 
f 7/2/2 8/3/2 5/4/2 
f 1/4/3 4/1/3 6/2/3 
f 6/2/3 5/3/3 1/4/3 
f 4/4/4 3/1/4 7/2/4 
f 7/2/4 6/3/4 4/4/4 
f 3/4/5 2/1/5 8/2/5 
f 8/2/5 7/3/5 3/4/5 
f 2/4/6 1/1/6 5/2/6 
f 5/2/6 8/3/6 2/4/6 
f 9/1/1 10/2/1 11/3/1 
f 11/3/1 12/4/1 9/1/1 
f 13/4/2 14/1/2 15/2/2 
f 15/2/2 16/3/2 13/4/2 
f 9/4/4 12/1/4 14/2/4 
f 14/2/4 13/3/4 9/4/4 
f 12/4/5 11/1/5 15/2/5 
f 15/2/5 14/3/5 12/4/5 
f 11/4/6 10/1/6 16/2/6 
f 16/2/6 15/3/6 11/4/6 
f 10/4/3 9/1/3 13/2/3 
f 13/2/3 16/3/3 10/4/3 
# 24 faces

