# 3ds Max Wavefront OBJ Exporter v0.97b - (c)2007 guruware
# 创建的文件:30.11.2014 11:31:46

mtllib update.mtl

#
# object Gengon01
#

v  0.0000 3.8450 -0.0000
v  22.0082 3.8450 3.6251
v  22.0082 3.8450 -3.6251
v  3.6251 3.8450 -22.0082
v  -3.6251 3.8450 -22.0082
v  -22.0082 3.8450 -3.6251
v  -22.0082 3.8450 3.6251
v  -3.6251 3.8450 22.0082
v  3.6251 3.8450 22.0082
v  22.0082 -3.8450 3.6251
v  22.0082 -3.8450 -3.6251
v  3.6251 -3.8450 -22.0082
v  -3.6251 -3.8450 -22.0082
v  -22.0082 -3.8450 -3.6251
v  -22.0082 -3.8450 3.6251
v  -3.6251 -3.8450 22.0082
v  3.6251 -3.8450 22.0082
v  0.0000 -3.8450 -0.0000
# 18 vertices

vn 0.0000 1.0000 -0.0000
vn 1.0000 0.0000 -0.0000
vn 0.3827 0.0000 -0.9239
vn -0.3827 0.0000 -0.9239
vn -0.9239 0.0000 -0.3827
vn -0.9239 0.0000 0.3827
vn -0.3827 0.0000 0.9239
vn 0.3827 0.0000 0.9239
vn 0.0000 -1.0000 -0.0000
# 9 vertex normals

vt 0.5000 0.5000 0.0000
vt 0.9842 0.4415 0.0000
vt 0.9842 0.5748 0.0000
vt 0.5832 0.9756 0.0000
vt 0.4252 0.9761 0.0000
vt 0.0239 0.5748 0.0000
vt 0.0239 0.4293 0.0000
vt 0.4293 0.0198 0.0000
vt 0.5727 0.0198 0.0000
vt 0.4965 0.3779 0.0000
vt 0.4945 0.3772 0.0000
vt 0.4941 0.3767 0.0000
vt 0.4979 0.3805 0.0000
vt 0.4926 0.3764 0.0000
vt 0.5005 0.3810 0.0000
vt 0.4948 0.3738 0.0000
vt 0.5024 0.3812 0.0000
vt 0.4973 0.3720 0.0000
vt 0.5047 0.3799 0.0000
vt 0.4994 0.3717 0.0000
vt 0.5064 0.3797 0.0000
vt 0.5023 0.3717 0.0000
vt 0.5081 0.3780 0.0000
vt 0.5047 0.3720 0.0000
vt 0.5077 0.3764 0.0000
vt 0.5068 0.3735 0.0000
# 26 texture coords

g Gengon01
usemtl _update_updatedefault
s 1
f 1/1/1 2/2/1 3/3/1 
f 1/1/1 3/3/1 4/4/1 
f 1/1/1 4/4/1 5/5/1 
f 1/1/1 5/5/1 6/6/1 
f 1/1/1 6/6/1 7/7/1 
f 1/1/1 7/7/1 8/8/1 
f 1/1/1 8/8/1 9/9/1 
f 1/1/1 9/9/1 2/2/1 
f 2/10/2 10/11/2 11/12/2 
f 2/10/2 11/12/2 3/13/2 
f 3/13/2 11/12/2 12/14/3 
f 3/13/2 12/14/3 4/15/3 
f 4/15/3 12/14/3 13/16/4 
f 4/15/3 13/16/4 5/17/4 
f 5/17/4 13/16/4 14/18/5 
f 5/17/4 14/18/5 6/19/5 
f 6/19/5 14/18/5 15/20/6 
f 6/19/5 15/20/6 7/21/6 
f 7/21/6 15/20/6 16/22/7 
f 7/21/6 16/22/7 8/23/7 
f 8/23/7 16/22/7 17/24/8 
f 8/23/7 17/24/8 9/25/8 
f 9/25/8 17/24/8 10/26/2 
f 9/25/8 10/26/2 2/13/2 
f 10/2/9 18/1/9 11/3/9 
f 11/3/9 18/1/9 12/4/9 
f 12/4/9 18/1/9 13/5/9 
f 13/5/9 18/1/9 14/6/9 
f 14/6/9 18/1/9 15/7/9 
f 15/7/9 18/1/9 16/8/9 
f 16/8/9 18/1/9 17/9/9 
f 17/9/9 18/1/9 10/2/9 
# 32 faces

